<?xml version="1.0" standalone="no"?>
<svg viewBox="0 0 200 200" xmlns="http://www.w3.org/2000/svg">
  <path fill="#BAE6FF" d="M43.3,-67.8C54.7,-60,61.8,-45.7,67.2,-31.4C72.5,-17.1,76.2,-2.8,75.9,12C75.5,26.9,71.1,42.3,61.4,52.7C51.6,63.1,36.6,68.4,20.9,74.6C5.1,80.8,-11.4,87.9,-25.8,85C-40.1,82,-52.3,69,-61.6,55.1C-70.9,41.3,-77.2,26.7,-78,12.1C-78.8,-2.5,-74,-17.1,-68.6,-32.3C-63.2,-47.6,-57.1,-63.5,-45.6,-71.3C-34.1,-79.1,-17,-78.7,-0.6,-77.8C15.9,-76.9,31.8,-75.6,43.3,-67.8Z" transform="translate(100 100)" />
</svg>
